<?xml version="1.0" encoding="UTF-8"?><svg id="Camada_1" xmlns="http://www.w3.org/2000/svg" viewBox="0 0 200 189.98"><path d="m194.24,114.86c2.82,7.58-.62,7.89-2.42,13.86s3.54,14.95,8.18,13.71c-5.59,3.97-11.78-1.99-13.43-7.3-2.45,3.98-1.47,13.57,4.45,16.9-5.91,1.44-9.14-3.33-12.63-7.4,3,3.31.97,10.39-2.54,15.25,1.8-2.87-.19-9.15-4.22-9.06.57,7.51-7.15,20.55-23.52,26.08,13.77-9.28,8.49-23.43,8.49-23.43,0,0-90.89,16.53-94.49,21.31s2.17,13.39,8.16,14.94c-8.78,1.77-14.97-5.52-18.56-12.37,1.4,1.99.15,6.63-3.59,7.29,3.99-3.31-3.72-13.7-8.58-15.25.6,3.98-3.46,10.83-11.38,12.82,10.78-16.79.2-24.75-4.2-25.41s-8.54-9.72-4.01-13.19c4.53-3.46,0-14.54,0-14.54l-5.62-37.61s-7.32-11.12-1.93-20.84-2.22-11.52-2.22-11.52c0,0-5.97.03-10.16-5.71,4.99,5.71,12.38,3.11,14.78,1.12s1.19-8.86.79-10.41c-1.2-2.65,4.19-17.46,18.96-17.02,14.77.44,21.76-8.18,11.38-18.34,5.39-1.33,13.16,5.75,11.97,8.62,2.2-7.24,4.11-8.12,5.79-8.73-1.8,2.54-2.59,4.47-1,5.58s11.83,2.6,17.86-4.42,20.26-8.45,23.25-6.46,21.56,12.71,28.84-3.31c.36,1.04,1.7,4.53-1.9,8.95s11.96,17.35,28.93-.22c-1.29,7.62-4.49,10.39-7.58,10.72,7.99-.45,20.37-4.75,23.66,14.47,3.29,19.22,18.96,9.17,19.06,8.62-1.8,3.31-5.29,10.39-13.57,8.84,4.69.55,12.57,3.2,13.17,10.61s4.49,9.06,5.19,8.07c.4,1.69-2.83,10.44-6.72,10.44-4.69-.5,1.35,34.37,1.35,34.37Z" style="fill:#2b1c0e; stroke-width:0px;"/><path d="m32.81,106.44s3.09,25.55,3.39,26.25,10.58,31.64,15.17,35.03c3.69,4.19,22.79,16.57,50.91,19.26,28.53-3.09,56.26-25.55,56.86-26.35s9.79-25.05,11.69-35.83c.6-10.68,0-29.34,0-29.34,0,0,3.39-19.54-15.27-50-28.24-27.15-112.85.83-120.03,12.61-5.46,8.96-2.93,46.72-2.73,48.36Z" style="fill:#ffc78f; stroke-width:0px;"/><path d="m86.83,110.93c1.59.11,1.69-28.14,14.02-29.11s15.26,26.71,15.52,27.51c3.72.27,7.19,3.19,7.19,7.45s-2.93,8.47-11.18,7.56c-.93-.1-2.11-.12-3.45-.07-2.54,3.16-8.57,5.02-16.13,1.85-2.76.44-4.64.78-4.64.78,0,0-8.54,2.11-10.65-5.2s5.32-11.04,9.31-10.77Z" style="fill:#ffa492; stroke-width:0px;"/><path d="m81.11,92.92s20.24-14.33,39.94-1.14" style="fill:none; stroke:#ffd3ab; stroke-miterlimit:10; stroke-width:3.63px;"/><path d="m119.42,88.68s-1.19,22.65,24.96,24.05c27.15-1.8,20.16-29.54,20.16-29.54,0,0-26.95-14.47-45.12,5.49Z" style="fill:#ffd3ab; stroke-width:0px;"/><path d="m83.3,89.58s4.23,26.42-22.06,31.61c-3.99.79-8.15.73-12.03-.49-19.53-6.12-12.42-31.12-12.42-31.12,0,0,27.74-19.76,46.51,0Z" style="fill:#ffd3ab; stroke-width:0px;"/><path d="m132.16,68.5s14.97-6.99,26.15,3.59c3.73,4.93-6.2,1-7.59,0s-6.98-3.59-13.76-2.59c-1.97.12-7.81,1.67-4.79-1Z" style="fill:#2b1c0e; stroke-width:0px;"/><path d="m69.92,72.44s-15.76-4.96-25.45,7c-3.05,5.38,6.28.17,7.53-1s6.45-4.48,13.3-4.38c1.97-.14,7.96.63,4.62-1.62Z" style="fill:#2b1c0e; stroke-width:0px;"/><path d="m83.54,154.35c.76-1.9,12.34-11.13,13.23-11.63s4.09,2.3,4.09,2.59,4.49-3.21,5.89-2.65c1.45.08,10.88,6.6,13.87,7.89s-10.88,8.78-15.97,9.08c-7.39,1.8-21.88-3.39-21.12-5.29Z" style="fill:#ffa492; stroke-width:0px;"/><path d="m83.54,154.35s18.52-10.48,37.09-3.79" style="fill:none; stroke:#f77e6b; stroke-linecap:round; stroke-miterlimit:10; stroke-width:1.21px;"/><path d="m32.4,100.13s-9.58-7.93-22.95-4.57c-13.37,3.36-2.2,41.32,13.57,40.32,5.77-.37,8.9-2.17,10.56-4.31,2.87-3.71,1.29-8.43,1.29-8.43l-2.47-23.02Z" style="fill:#ffc78f; stroke-width:0px;"/><path d="m170.23,91.53s8.42-9.15,22.13-7.62c13.7,1.53,7.74,40.65-8.02,41.78-4.57.33-7.62-.46-9.65-1.74-4.97-3.15-3.81-9.28-3.81-9.28l-.65-23.14Z" style="fill:#ffc78f; stroke-width:0px;"/><path d="m184.3,118.52s1.2,9.18-1.4,10.98c-2.59,1.8-5.23-.78-5.24-5.15" style="fill:none; stroke:#aaa; stroke-linecap:round; stroke-miterlimit:10; stroke-width:3.63px;"/><path d="m22.26,128.7s-1.2,9.18,1.4,10.98,5.23-.78,5.24-5.15" style="fill:none; stroke:#aaa; stroke-linecap:round; stroke-miterlimit:10; stroke-width:3.63px;"/><path d="m48.41,100.47c-1.16-.84,12.07-16.57,27.05-5.99-1.78,8.2-21.79,9.78-27.05,5.99Z" style="fill:#ffe7c5; stroke-width:0px;"/><path d="m125.62,92.76s12.97-14.58,29.14,0c-8.58,8.49-24.75,2.98-29.14,0Z" style="fill:#ffe7c5; stroke-width:0px;"/><path d="m176.62,121.7l4.27,2.12-1.33,1.74s-9.67-1.64-2.95-3.86Z" style="fill:#ffc78f; stroke-width:0px;"/><path d="m24.82,131.76l7.72-1.4-.21,2.51s-1.51,1.86-6.89,2.75c-.79-2.58-.62-3.87-.62-3.87Z" style="fill:#ffc78f; stroke-width:0px;"/><path d="m64.31,91.78c-1.49-.6-3.21-.42-4.56.44-1.09.7-2.22,1.96-2.36,4.19-.28,4.44,2.71,4.84,4.52,4.84,1.69,0,4.88-.85,4.93-4.94.03-2.66-1.1-3.95-2.53-4.53Z" style="fill:#2b1c0e; stroke-width:0px;"/><path d="m88.66,116.79c-.96-.39-2.07-.27-2.94.29-.7.45-1.43,1.27-1.52,2.7-.18,2.86,1.75,3.12,2.91,3.12,1.09,0,3.15-.55,3.18-3.18.02-1.72-.71-2.55-1.63-2.92Z" style="fill:#e0604b; stroke-width:0px;"/><path d="m115.31,115.17c-.96-.39-2.07-.27-2.94.29-.7.45-1.43,1.27-1.52,2.7-.18,2.86,1.75,3.12,2.91,3.12,1.09,0,3.15-.55,3.18-3.18.02-1.72-.71-2.55-1.63-2.92Z" style="fill:#e0604b; stroke-width:0px;"/><path d="m72.86,66.19c-.3-.12-.65-.09-.93.09-.22.14-.45.4-.48.85-.06.9.55.98.92.98.34,0,.99-.17,1-1,0-.54-.22-.8-.51-.92Z" style="fill:#bc8050; stroke-width:0px;"/><path d="m138.17,86.77c1.6-.12,3.19.57,4.21,1.8.83,1,1.52,2.55.99,4.7-1.08,4.32-4.05,3.79-5.77,3.25-1.61-.51-4.4-2.29-3.21-6.2.77-2.55,2.24-3.44,3.78-3.55Z" style="fill:#2b1c0e; stroke-width:0px;"/><path d="m47.04,96.32c.53-.59,5.04-6.18,12.5-7.25s13.05.93,15.05,2" style="fill:none; stroke:#eab488; stroke-linecap:round; stroke-miterlimit:10; stroke-width:1.21px;"/><path d="m126.17,88.41c.64-.47,6.17-5.05,13.7-4.6,7.52.45,12.6,3.52,14.34,4.96" style="fill:none; stroke:#eab488; stroke-linecap:round; stroke-miterlimit:10; stroke-width:1.21px;"/><path d="m47.94,75.5s-2.99-.17-3.23,2.93c0,.96.35,1.43.88,2.02,1.22,1.35,3.47,1.38,4.5-.12.17-.25.31-.53.39-.85" style="fill:none; stroke:#aaa; stroke-linecap:round; stroke-miterlimit:10; stroke-width:1.21px;"/><path d="m52.14,78.31s-1.64,1.31-3.28,2.08-.09-2.37,3.28-2.08Z" style="fill:#2b1c0e; stroke-width:0px;"/><path d="m51.23,74.97s-1.64,1.31-3.28,2.08-.09-2.37,3.28-2.08Z" style="fill:#2b1c0e; stroke-width:0px;"/><path d="m37.01,47.99l.44-9.05s88.09-56.51,120.44,9.61c-32.79-19.94-120.87-.55-120.87-.55Z" style="fill:#1a1704; stroke-width:0px;"/><path d="m49.55,28.42s57.78-39.91,99.08,1.71c-36.27-24.07-99.08-1.71-99.08-1.71Z" style="stroke-width:0px;"/><path d="m121.14,42.52c4.98.59,7.91-14.89,7.34-18.74-.16-4.57-7.49-7.93-10.36-5.76,0,0,4.64,7.09.75,12.44-3.12,4.29.19,11.82,2.27,12.06Z" style="fill:#2b1c0e; stroke-width:0px;"/><path d="m126.04,40.18c3.15,4.65,7.58,3.16,9.26-5.45.9-8.06-5.41-13.54-7.82-14.12,0,0,3.08,5.79,1.77,9.58s-4.2,8.4-3.21,9.99Z" style="fill:#2b1c0e; stroke-width:0px;"/><path d="m107.35,41.84c3.23.43,5.24.4,6.19-5.07.7-4.07-1.16-19.53-2.96-20.49s-5.39,8.11-6.82,14.5c-.86,3.47-.47,10.45,3.58,11.06Z" style="fill:#2b1c0e; stroke-width:0px;"/><path d="m114.49,40.66c2.58.63,4.84-7.86,5.29-10.59,1.27-7.62-5.82-15.95-4.68-12.19,1.13,3.76-2.84,14.87-1.81,21.09.12.75,1.2,1.7,1.2,1.7Z" style="fill:#2b1c0e; stroke-width:0px;"/><path d="m99.42,40.65c-3.01-.26-4.27-4.78-3.68-11.37.59-6.59,12.43-13.01,12.43-13.01,0,0-6.91,16.03-5.73,21.4.44,2.41-3.02,2.98-3.02,2.98Z" style="fill:#2b1c0e; stroke-width:0px;"/><path d="m83.85,51.56c2.07-2.08,6.37-6.73,5.4-10.72,0,0,.21,3.27-5.52,10.79l.12-.07Z" style="fill:#2b1c0e; stroke-width:0px;"/><path d="m90.22,38.23c-2.8-2.89,1.09-19.11,17.03-21.27,0,0-8.28,6.26-8.54,12.1,2.51,7.4,2.54,6.37,2.45,7.92.02,1.81-1.9,3.69-2.55,3.8-.71.79-6-.09-8.38-2.55Z" style="fill:#2b1c0e; stroke-width:0px;"/><path d="m97.75,19.44s-22.11,8.87-18.06,20.58c6.77,10.61,8.68-11.31,18.06-20.58Z" style="fill:#2b1c0e; stroke-width:0px;"/><path d="m142.29,46.66c15,1.18-1.95-24.14-10.64-24.77-.49.14,5.26,5.82,4.29,13.14-2.06,6.44,2.38,11.33,6.35,11.64Z" style="fill:#2b1c0e; stroke-width:0px;"/><path d="m69.5,41.07c-4.86-2.57-5.79-21.35,18.21-20.87,14.84.29-3.49,3.3-6.3,7.44-2.81,4.14-2.11,12.03-4.66,14.85-2.55,2.82-7.24-1.42-7.24-1.42Z" style="fill:#2b1c0e; stroke-width:0px;"/><path d="m58.52,45.31c-6.3-2.82,1.53-20.1,12.76-22.75,0,0-4.69,7.07-5.22,10.85-.61,4.34.28,6.07,2.46,8.86,2.13,5.57-8.51,3.71-10,3.04Z" style="fill:#2b1c0e; stroke-width:0px;"/><path d="m47.2,51.66c-5.44-4.04-1.86-15.2,14.17-24.87,0,0-4.67,7.61-5.49,10.74-1.2,4.56,1.58,8.35,2.88,9.31,1.85,1.37-8.94,6.76-11.55,4.82Z" style="fill:#2b1c0e; stroke-width:0px;"/><path d="m39.58,53.72c-3.95-1.7,4.74-17.59,14.28-24.85,0,0-14.16,13.81-11.67,22.64.69,2.84-2.61,2.21-2.61,2.21Z" style="fill:#2b1c0e; stroke-width:0px;"/><path d="m33.67,65.74c-8.71-3.39,1.1-28.35,13.85-33.94,0,0-8.24,11.61-7.56,16.05.17,5.64-3.89,18.82-6.29,17.89Z" style="fill:#2b1c0e; stroke-width:0px;"/><path d="m153.63,49.46c.42,2.72,5.35,8.47,6.92,8.25s-1.06-19.83-5.19-22.75c-4.13-2.93-9.6-6.63-10.49-7.11s7.69,14.76,8.76,21.61Z" style="fill:#2b1c0e; stroke-width:0px;"/><path d="m162.08,60.43c.37,1.81,6.45,3.06,5.59-4.46s-5.19-11.51-4.06-8.98-2.26,9.85-1.53,13.44Z" style="fill:#2b1c0e; stroke-width:0px;"/><path d="m33.2,70.33c1.56-4.44-5.46-14.55-3.78-16.95-1.94,1.66-.94,13.74,1.09,16,.8,2.26,2.69.95,2.69.95Z" style="fill:#2b1c0e; stroke-width:0px;"/><path d="m87.26,49.77c1.22-1.9,3.69-6.09,2.32-8.93,0,0,.69,2.43-2.39,9l.08-.07Z" style="fill:#2b1c0e; stroke-width:0px;"/></svg>