<?xml version="1.0" encoding="UTF-8"?><svg id="Camada_1" xmlns="http://www.w3.org/2000/svg" viewBox="0 0 200.72 291.71"><path d="m126.66,52.84s40.92,45.22,40.38,47.98c-.54,2.76-7.11,47.43-9.53,51.01-2.42,3.58-31.4,33.78-37.7,35.43-6.31,1.65-13.55,1.79-18.11.69-4.56-1.1-33.54-14.89-44.41-28.82-10.87-13.93-17.31-61.35-17.31-65.35s2.68-24.82,6.31-28.26c3.62-3.45,23.48-9.24,24.15-10.34s56.22-2.34,56.22-2.34Z" style="fill:#fcdcbc; stroke-width:0px;"/><path d="m101.43,62.63s28.04,42.74,38.51,47.98c1.46.67-19.32-32.95-22.81-46.74-3.49-13.79-8.65-15.03-8.65-15.03l-7.05,1.24v12.55Z" style="fill:#3c1201; stroke-width:0px;"/><path d="m112.13,59.32s36.39,9.24,40.42,38.33c4.03,29.09-6.57,34.19-7.78,36.26-1.21,2.07,1.21.55,3.62-2.21,2.42-2.76,11.73-17.5,12.61-24.13,2.93-21.95-6.57-50.32-32.33-57.08-25.76-6.76-16.53,8.82-16.53,8.82Z" style="fill:#3c1201; stroke-width:0px;"/><path d="m64.87,35.74c.6-1.03,9.61-17.79,32.38-18.82,22.76-1.03,39.47,6.62,48.93,12s20.73-.93,20.73-.93c0,0-9.96,6.41-12.48,6.82s9.46-.83,14.19-4.65c0,0-6.34,6.31-11.27,6.31s-.91,4.45,1.21,4.24,15.9-1.45,23.55,4.65c0,0-8.25-2.38-11.67-1.34-3.42,1.03,9.36.21,15.5,9,6.14,8.79,4.23,12.2,4.23,12.2,0,0-6.84-10.44-16.5-9.1-2.31.31,6.34,10.65,8.96,24.92,2.62,14.27,16.6,11.3,18.11,10.72,0,0-6.78,4.21-10.93,3.62-4.16-.59,1.58,13.17.37,19.27s-30.29-15.82-30.29-15.82l-12.88-32.55-36.02-14.4-17.31.83-21.94,4.14-11.27,11.58-10.67,7.45-6.04,11.63,21.13-51.75Z" style="fill:#3c1201; stroke-width:0px;"/><path d="m64.87,39.67s-16.91-2.14-32.13,12.06c-15.23,14.2-16.64,29.71-19.32,45.98C12.41,104.68.2,115.3,0,115.71s16.77-6.91,17.11-9.59c2.15-5.17-5.84,9.58.13,15.79,5.97,6.2,25.56-13.12,25.56-13.12l16.64-46.86,5.43-22.27Z" style="fill:#3c1201; stroke-width:0px;"/><path d="m42.28,111.39s-5.13-2.79-9.86-2.59c-4.73.21-16.3,3.02-16.2,16.97.1,13.95,10.97,17.77,13.69,18.39s8.45,1.96,13.89-1.65,7.25-8.17,7.25-8.17l-8.75-22.96Z" style="fill:#f5af99; stroke-width:0px;"/><path d="m166,105.28s5.13-2.79,9.86-2.59,16.3,3.02,16.2,16.97c-.1,13.95-10.97,17.77-13.69,18.39s-8.45,1.96-13.89-1.65c-5.43-3.62-7.25-8.17-7.25-8.17l8.75-22.96Z" style="fill:#f5af99; stroke-width:0px;"/><path d="m150.54,108.6c-13.69-13.04-22.41-4.74-22.41-4.74" style="fill:none; stroke:#60392d; stroke-linecap:round; stroke-miterlimit:10; stroke-width:.62px;"/><path d="m128.13,103.85l-2.28,4.14,22.81,4.96s1.97-.82,2.93-1.72-1.05-2.63-1.05-2.63c0,0-2.18-2.02-3.34-2.85s-5.54-3.37-7.75-3.98c-2.21-.62-5.16-.43-6.49-.23s-4.83,2.31-4.83,2.31Z" style="fill:#250c0a; stroke-width:0px;"/><path d="m59.84,114.16s3.35-11.17,20.66-8.41" style="fill:none; stroke:#60392d; stroke-linecap:round; stroke-miterlimit:10; stroke-width:.62px;"/><path d="m83.19,109.5s-1.33-2.93-2.8-3.65c-1.47-.72-9.49-.73-13.72.89,0,0-4.82,1.85-7.84,7.42,0,0-2.15,3.14.62,3.72l1.48.44,22.26-8.82" style="fill:#250c0a; stroke-width:0px;"/><line x1="147.48" y1="114.16" x2="149.5" y2="116.09" style="fill:none; stroke:#1d1d1b; stroke-linecap:round; stroke-miterlimit:10; stroke-width:.62px;"/><line x1="138.85" y1="116.97" x2="139.33" y2="119.24" style="fill:none; stroke:#1d1d1b; stroke-linecap:round; stroke-miterlimit:10; stroke-width:.62px;"/><line x1="129.07" y1="113.76" x2="127.46" y2="115.12" style="fill:none; stroke:#1d1d1b; stroke-linecap:round; stroke-miterlimit:10; stroke-width:.62px;"/><line x1="64.52" y1="120.63" x2="63" y2="122.98" style="fill:none; stroke:#1d1d1b; stroke-linecap:round; stroke-miterlimit:10; stroke-width:.62px;"/><line x1="73.56" y1="121.29" x2="73.6" y2="123.62" style="fill:none; stroke:#1d1d1b; stroke-linecap:round; stroke-miterlimit:10; stroke-width:.62px;"/><line x1="82.34" y1="115.84" x2="84.22" y2="116.78" style="fill:none; stroke:#1d1d1b; stroke-linecap:round; stroke-miterlimit:10; stroke-width:.62px;"/><path d="m125.85,107.99s11.94-8.96,22.81,4.96c0,0-14.36,10.34-22.81-4.96Z" style="fill:#ddd5e5; stroke-width:0px;"/><path d="m83.19,109.5s-17.58-5.79-21.33,8.82c0,0,17.44,9.1,21.33-8.82Z" style="fill:#ddd5e5; stroke-width:0px;"/><path d="m135.29,105.31c4.99-.58,6.42,3.35,6.54,5.05s-1.88,4.81-4,5.18-5.11-.48-6.04-3.07c-.93-2.59.27-6.39,3.5-7.16Z" style="fill:#431d0f; stroke-width:0px;"/><path d="m78.18,116.11c-2.68,4.69-6.8,3.45-8.27,2.48s-2.76-4.66-1.73-6.73,3.62-4.12,6.33-3.3,5.07,4.26,3.67,7.55Z" style="fill:#431d0f; stroke-width:0px;"/><path d="m104.19,103.59c-2.66,1.17-8.67,23.16-8.86,23.47s-6.37,3.29-6.27,10.19,4.17,7.46,5.7,7.67,4.07-1.39,4.26-1.49,3.21,1.43,4.98,1.51,6.55-1.49,6.79-1.75,1.69.49,3.36.29,7.18-3.24,6.85-8.34c-.34-5.1-5.07-7.98-5.31-8.08s-4.69-20.58-5.31-21.98c-.62-1.39-2.68-3.04-6.18-1.49Z" style="fill:#f5af99; stroke-width:0px;"/><path d="m93.74,138.08c-.42-2.39.71-4.71,2.73-4.96s4.03.83,4.3,2.67-.02,4.3-3.16,4.96c-2.98.33-3.88-2.66-3.88-2.66Z" style="fill:#7e5446; stroke-width:0px;"/><path d="m111.37,133.1c2.3-.19,4.38,1.16,4.42,3.2s-1.17,3.94-2.93,4.03-4.06-.43-4.38-3.62c-.02-3,2.89-3.61,2.89-3.61Z" style="fill:#7e5446; stroke-width:0px;"/><path d="m89.06,162.05s9.27-3.94,10.28-3.84,5.33,1.15,6.79,1.05,4.98-1.19,6.39-1.03,5.28.92,7.3,1.91,1.91,1.4,2.31,1.61-7.14,6.72-13.33,6.82-10.67-.98-11.17-1.29-7.83-2.69-8.57-5.22Z" style="fill:#ba4b53; stroke-width:0px;"/><path d="m99.42,158.73c1.46.21,5.46,1.79,5.61,1.79s5.79-1.38,6.33-1.79,9.24,2.66,10.85,3.21,1.42-.31,1.42-.31c-2.55-3.17-14.09-9.03-15.16-8.96s-2.42,1.24-3.96,1.17-2.15-1.17-4.9-1.17c-1.07.21-11.47,7.72-11.81,8s-1.54.76,0,1.1,10.67-3.17,11.61-3.03Z" style="fill:#c8585c; stroke:#c8585c; stroke-miterlimit:10; stroke-width:.62px;"/><path d="m126.1,90.03s1.64-3.99,2.03-4.38,19.78,2.91,22.22,6.03c.3.45-14.49-1.34-15.85-1.44s-8.1-.21-8.4-.21Z" style="fill:#3c1201; stroke-width:0px;"/><path d="m85.79,91.99s-.43-4.14-1.16-4.48-16.53,3.41-17.87,3.93-.58,2.48-.58,2.48l1.41.79s15.15-2.62,18.19-2.72Z" style="fill:#3c1201; stroke-width:0px;"/><path d="m86.65,91.75s.77-4.55.57-6.34" style="fill:none; stroke:#3c1201; stroke-linecap:round; stroke-miterlimit:10; stroke-width:.62px;"/><path d="m86.36,85.62s.26,5.04.04,5.99" style="fill:none; stroke:#3c1201; stroke-linecap:round; stroke-miterlimit:10; stroke-width:.62px;"/><path d="m51.04,79.73s2.36.07,2.36,1.62-6.71,41.05-3.62,49.7,2.01,20.78,23.88,29.88c0,0-17.71-.83-25.89-8.27-8.18-7.44-11.54-34.74-6.98-49.98,4.56-15.24,10.25-22.95,10.25-22.95Z" style="fill:#3c1201; stroke-width:0px;"/><path d="m71.92,71.18c-1.65,2.68-22.76,35.08-13.28,60.8,0,0-8.05-.41-9.79-19.99-1.74-19.58,4.7-40.81,4.7-40.81l12.44-12.27,9.03-7.45,15.7-2.62s-16.22,18.16-18.78,22.34Z" style="fill:#3c1201; stroke-width:0px;"/><path d="m83.86,56.54s10.35,46.95,43.6,71.71c0,0-25.32-53.72-25.18-67.98.14-14.26-8.16-16.26-8.16-16.26l-10.27,12.53Z" style="fill:#3c1201; stroke-width:0px;"/><path d="m87.26,61.94s-25.06,33.31-29.59,42.64c-4.53,9.33-4,13.19-4,13.19,0,0,3.35-42.33,3.76-42.88s11.97-22.61,13.03-22.89,10.05.14,10.58,0,5.2,2.9,6.22,3.31,0,6.62,0,6.62Z" style="fill:#3c1201; stroke-width:0px;"/></svg>