<?xml version="1.0" encoding="UTF-8"?><svg id="Camada_1" xmlns="http://www.w3.org/2000/svg" viewBox="0 0 200.72 291.71"><path d="m28.84,107.3c-5.1-2.76-30.77-2.17-28.6,20.08,5.15,22.05,28.74,14.07,32.25,9.79,3.51-4.28-3.65-29.88-3.65-29.88Z" style="fill:#71392a; stroke-width:0px;"/><path d="m162.05,88.7c2.04-2.67,24.87-8.29,27.47,8.35,1.92,20.95-19.59,28.13-25.25,22.47-5.67-5.65-2.22-30.82-2.22-30.82Z" style="fill:#713b2a; stroke-width:0px;"/><path d="m172.54,109.2c2.89-.1,4.43,2.48,4.25,4.23s-1.26,3.77-4.25,4.14c-2.35-.28-3.97-1.19-4.43-3.77s1.63-4.7,4.43-4.59Z" style="fill:#b8c4d2; stroke-width:0px;"/><path d="m166.33,55.43c4.34-4.14,11.65-4.41,15.17,2.76,3.52,7.17-8.79.83-12.26,1.65-.84.2-1.45.04-1.88-.31-1.35-1.1-1.04-4.1-1.04-4.1Z" style="fill:#1d1d1b; stroke-width:0px;"/><path d="m168.06,60.52c-.07,1.1,2.44,5.31,9.28,6.34,6.71.55,1.79-4.89.81-5.09s-9.14-2.42-10.09-1.25Z" style="fill:#1d1d1b; stroke-width:0px;"/><path d="m182.13,56.86c3.59.83,9.55,9.37,15.78-4.34.34,2.21,1.35,24.88-13.34,12.89l-2.44-8.55Z" style="fill:#1d1d1b; stroke-width:0px;"/><path d="m180.8,66.51c.5.36,10.61,4.75,11.58,11.49,2.23,6.44,4.73-.78,2.37-6.2-2.37-5.42-9.42-8.97-9.42-8.97l-4.53,3.67Z" style="fill:#1d1d1b; stroke-width:0px;"/><path d="m26.93,83.14s5.31,71.65,12.1,78.14c6.79,6.49,38.95,31.19,64.63,30.88,25.67-.31,59.32-44.78,60.2-46.33.89-1.54-1.18-78.45-5.31-85.24-4.13-6.79-52.88-12.99-73-9.31-20.55,3.75-51.83,18.89-58.62,31.86Z" style="fill:#7a523c; stroke-width:0px;"/><path d="m38.44,100.95s9.89-10.88,19.78-8.3" style="fill:none; stroke:#563c29; stroke-linecap:round; stroke-miterlimit:10; stroke-width:1.24px;"/><path d="m125.15,84.1c.54,0,7.47-4.27,20.3,1.72" style="fill:none; stroke:#563c29; stroke-linecap:round; stroke-miterlimit:10; stroke-width:1.24px;"/><path d="m25.16,86.12s.9,6.16-2.98,5.33c-3.07-1.01-1.89-4.14-.99-4.69,1.54-1.65-1.59,3.31,1.42,3.22s2.56-3.86,2.56-3.86Z" style="fill:none; stroke:#1d1d1b; stroke-miterlimit:10; stroke-width:1.24px;"/><path d="m25.25,84.3c-.35.3-12.56-56.86,47.42-68.28,59.97-11.43,90.22,15.5,89.87,45.71,0,1.94-3.7,2.03-3.7,2.03,0,0-73.07-31.7-133.58,20.55Z" style="fill:#1d1d1b; stroke-width:0px;"/><path d="m122.03,94.37s11.59-11.77,26.28-1.4c-11.46,17.08-26.28,1.4-26.28,1.4Z" style="fill:#c5aa91; stroke-width:0px;"/><path d="m137.41,89.01s3.43.58,3.56,5.02c-.07,4.14-2.89,5.34-5.42,5.56s-5.66-1.07-6.04-3.86c-.22-1.61-.16-8.08,7.9-6.73Z" style="fill:#1d1d1b; stroke:#1d1d1b; stroke-miterlimit:10; stroke-width:.31px;"/><path d="m65.27,100.23s-17.14-7.79-26.28,7.93c14.29,11.92,26.28-7.93,26.28-7.93Z" style="fill:#c5aa91; stroke-width:0px;"/><path d="m59.3,103.35c.24,2.54-1.03,5.01-4.95,5.72-3.92.71-6.21-1.65-6.5-3.64-.15-1.06,0-6.12,4.11-6.81.43-.07,6.72-1.66,7.33,4.73Z" style="fill:#1d1d1b; stroke-width:0px;"/><path d="m93.56,138.9s-13.11,7.03-17.13-3.59c-2.94-7.78,4.96-14.02,4.96-14.02,0,0,1.63-29.96,9.89-31.01,10.16-1.29,19.27,26.93,20,28.73,4.54,1.05,11.61,18.4-7.36,18.4-4.84,4.64-10.37,1.5-10.37,1.5Z" style="fill:#713b2a; stroke-width:0px;"/><path d="m120.27,77.48c.95.14,18.83.55,21.27-.83s.95-2.34-3.12-2.76-16.66-2.31-19.64,1.88c-1.02,2.03,1.49,1.71,1.49,1.71Z" style="fill:#1d1d1b; stroke-width:0px;"/><path d="m59.98,83.41s-19.1,3.58-20.19,4.55-4.06-1.38,0-3.03c4.06-1.65,10.03-5.51,18.56-4.27s1.63,2.76,1.63,2.76Z" style="fill:#1d1d1b; stroke-width:0px;"/><path d="m74.8,160.5s16.2,4.66,27.01,3.09c10.81-1.56,25.16-9.88,25.35-10.25s-40.6-.12-52.36,7.15Z" style="fill:#734834; stroke-width:0px;"/><path d="m73.99,160.97c-2.49,1.78,13.19-10.07,17.24-11.17s8.33,1.52,10.03.69c1.71-.83,4.93-3.38,7.78-3.1,2.85.28,15.27,4.76,15.41,4.76s3.06,1.23,4.91,1.32-21.84.24-23.45,1.07-6.12,2.06-9.33.83c-2.06-.8-22.08,5.24-22.6,5.61Z" style="fill:#5f3724; stroke-width:0px;"/><path d="m81.16,131.24c-.16,2.48,1.88,4.7,5.3,4.35s3.93-2.96,3.93-5.22-3.08-4.77-5.3-4.12c-2.22.64-3.76,2.38-3.93,4.99Z" style="fill:#462315; stroke-width:0px;"/><path d="m101.62,128.08c-.29,2.54,2,4.47,3.62,4.44,1.77-.31,4.86-.63,5.47-4.91.18-2.31-2.93-4.66-5.47-3.87-1.62-.15-3.31,1.67-3.62,4.34Z" style="fill:#462315; stroke-width:0px;"/><ellipse cx="109.14" cy="147.49" rx=".38" ry=".39" style="fill:#382316; stroke-width:0px;"/><ellipse cx="150.7" cy="125.42" rx=".49" ry=".5" style="fill:#382316; stroke-width:0px;"/></svg>