<?xml version="1.0" encoding="UTF-8"?><svg id="Camada_1" xmlns="http://www.w3.org/2000/svg" viewBox="0 0 200.72 291.71"><path d="m192.14,123.41c2.75,7.88-.61,8.2-2.36,14.41s3.45,15.54,7.97,14.25c-5.44,4.13-11.47-2.07-13.08-7.59-2.39,4.14-1.43,14.11,4.33,17.58-5.76,1.49-8.9-3.47-12.3-7.7,2.92,3.45.94,10.8-2.48,15.85,1.75-2.99-.19-9.51-4.11-9.42.55,7.81-6.97,21.37-22.91,27.11,13.41-9.65,8.27-24.36,8.27-24.36,0,0-88.52,17.19-92.03,22.16s2.11,13.92,7.94,15.53c-8.55,1.84-14.58-5.74-18.08-12.87,1.36,2.07.15,6.89-3.5,7.58,3.89-3.45-3.62-14.25-8.36-15.85.58,4.14-3.37,11.26-11.08,13.33,10.5-17.46.19-25.73-4.09-26.42s-8.32-10.11-3.9-13.71c4.42-3.6,0-15.12,0-15.12l-5.48-39.11s-7.13-11.56-1.88-21.67-2.16-11.98-2.16-11.98c0,0-5.81.04-9.89-5.94,4.86,5.94,12.06,3.24,14.39,1.17,2.33-2.07,1.16-9.21.77-10.82-1.17-2.76,4.08-18.15,18.47-17.69,14.39.46,21.19-8.5,11.08-19.07,5.25-1.38,12.82,5.97,11.66,8.96,2.14-7.52,4.01-8.44,5.64-9.08-1.75,2.64-2.53,4.65-.97,5.8s11.52,2.7,17.4-4.6,19.73-8.79,22.65-6.72,20.99,13.21,28.09-3.45c.35,1.08,1.65,4.71-1.85,9.31s11.65,18.04,28.18-.23c-1.25,7.93-4.37,10.8-7.39,11.14,7.78-.47,19.84-4.94,23.04,15.05,3.21,19.99,18.47,9.54,18.57,8.96-1.75,3.45-5.15,10.8-13.22,9.19,4.57.57,12.25,3.33,12.83,11.03s4.37,9.42,5.05,8.39c.39,1.76-2.75,10.86-6.54,10.86-4.57-.52,1.32,35.74,1.32,35.74Z" style="fill:#2b1c0e; stroke-width:0px;"/><path d="m34.91,114.66s3.01,26.57,3.3,27.29,10.3,32.9,14.77,36.42c3.6,4.36,22.19,17.23,49.59,20.03,27.78-3.22,54.8-26.57,55.38-27.4s9.53-26.05,11.38-37.25c.58-11.1,0-30.51,0-30.51,0,0,3.3-20.32-14.87-51.99-27.51-28.23-109.91.86-116.9,13.12-5.32,9.32-2.85,48.58-2.66,50.29Z" style="fill:#ffc78f; stroke-width:0px;"/><path d="m87.53,119.33c1.55.11,1.65-29.26,13.65-30.27s14.86,27.78,15.12,28.61c3.63.28,7,3.32,7,7.75s-2.85,8.8-10.89,7.86c-.9-.11-2.06-.12-3.36-.07-2.47,3.28-8.35,5.22-15.71,1.92-2.68.45-4.51.81-4.51.81,0,0-8.32,2.19-10.37-5.4s5.18-11.48,9.07-11.2Z" style="fill:#ffa492; stroke-width:0px;"/><path d="m81.96,100.59s19.71-14.9,38.9-1.18" style="fill:none; stroke:#ffd3ab; stroke-miterlimit:10; stroke-width:3.65px;"/><path d="m119.27,96.19s-1.16,23.56,24.31,25.01c26.44-1.87,19.63-30.72,19.63-30.72,0,0-26.25-15.05-43.94,5.71Z" style="fill:#ffd3ab; stroke-width:0px;"/><path d="m84.1,97.12s4.12,27.47-21.49,32.87c-3.89.82-7.94.76-11.72-.51-19.03-6.37-12.09-32.36-12.09-32.36,0,0,27.02-20.55,45.29,0Z" style="fill:#ffd3ab; stroke-width:0px;"/><path d="m131.68,75.21s14.58-7.26,25.47,3.74c3.63,5.13-6.04,1.04-7.39,0s-6.8-3.74-13.41-2.7c-1.92.13-7.61,1.74-4.67-1.04Z" style="fill:#2b1c0e; stroke-width:0px;"/><path d="m71.06,79.3s-15.35-5.16-24.79,7.27c-2.97,5.59,6.12.18,7.33-1.04s6.28-4.66,12.96-4.55c1.92-.14,7.75.66,4.5-1.68Z" style="fill:#2b1c0e; stroke-width:0px;"/><path d="m84.33,164.47c.74-1.97,12.01-11.57,12.89-12.09s3.99,2.39,3.99,2.7,4.37-3.34,5.73-2.76c1.41.08,10.59,6.86,13.51,8.21s-10.59,9.13-15.55,9.44c-7.19,1.87-21.31-3.53-20.57-5.5Z" style="fill:#ffa492; stroke-width:0px;"/><path d="m84.33,164.47s18.04-10.9,36.12-3.94" style="fill:none; stroke:#f77e6b; stroke-linecap:round; stroke-miterlimit:10; stroke-width:1.22px;"/><path d="m34.52,108.1s-9.33-8.25-22.35-4.75c-13.02,3.5-2.14,42.96,13.22,41.92,5.62-.38,8.67-2.25,10.28-4.48,2.79-3.85,1.26-8.76,1.26-8.76l-2.41-23.93Z" style="fill:#ffc78f; stroke-width:0px;"/><path d="m168.75,99.16s8.2-9.51,21.55-7.92c13.35,1.59,7.54,42.26-7.81,43.44-4.45.34-7.42-.48-9.39-1.81-4.84-3.27-3.71-9.65-3.71-9.65l-.63-24.06Z" style="fill:#ffc78f; stroke-width:0px;"/><path d="m182.46,127.21s1.17,9.55-1.36,11.41-5.1-.81-5.1-5.35" style="fill:none; stroke:#aaa; stroke-linecap:round; stroke-miterlimit:10; stroke-width:3.65px;"/><path d="m24.65,137.8s-1.17,9.55,1.36,11.41,5.1-.81,5.1-5.35" style="fill:none; stroke:#aaa; stroke-linecap:round; stroke-miterlimit:10; stroke-width:3.65px;"/><path d="m50.11,108.45c-1.13-.87,11.75-17.23,26.35-6.23-1.73,8.52-21.22,10.17-26.35,6.23Z" style="fill:#ffe7c5; stroke-width:0px;"/><path d="m125.31,100.43s12.64-15.17,28.38,0c-8.36,8.83-24.11,3.1-28.38,0Z" style="fill:#ffe7c5; stroke-width:0px;"/><path d="m174.98,130.52l4.16,2.21-1.29,1.81s-9.42-1.71-2.87-4.02Z" style="fill:#ffc78f; stroke-width:0px;"/><path d="m27.14,140.98l7.52-1.45-.2,2.61s-1.47,1.94-6.71,2.86c-.77-2.68-.61-4.02-.61-4.02Z" style="fill:#ffc78f; stroke-width:0px;"/><path d="m65.6,99.42c-1.45-.62-3.13-.44-4.44.46-1.07.73-2.17,2.04-2.3,4.35-.27,4.62,2.64,5.03,4.4,5.03,1.65,0,4.76-.88,4.81-5.14.03-2.77-1.07-4.11-2.46-4.71Z" style="fill:#2b1c0e; stroke-width:0px;"/><path d="m89.32,125.41c-.93-.4-2.02-.28-2.86.3-.69.47-1.39,1.32-1.48,2.8-.18,2.97,1.7,3.24,2.83,3.24,1.06,0,3.06-.57,3.1-3.31.02-1.78-.69-2.65-1.58-3.03Z" style="fill:#e0604b; stroke-width:0px;"/><path d="m115.27,123.74c-.93-.4-2.02-.28-2.86.3-.69.47-1.39,1.32-1.48,2.8-.18,2.97,1.7,3.24,2.83,3.24,1.06,0,3.06-.57,3.1-3.31.02-1.78-.69-2.65-1.58-3.03Z" style="fill:#e0604b; stroke-width:0px;"/><path d="m73.93,72.81c-.29-.13-.64-.09-.9.09-.22.15-.44.41-.47.88-.06.94.54,1.02.89,1.02.33,0,.97-.18.98-1.04,0-.56-.22-.83-.5-.96Z" style="fill:#bc8050; stroke-width:0px;"/><path d="m137.54,94.2c1.56-.13,3.11.59,4.1,1.87.81,1.04,1.49,2.65.96,4.89-1.05,4.49-3.94,3.94-5.62,3.37-1.57-.53-4.28-2.38-3.13-6.45.75-2.65,2.19-3.57,3.68-3.69Z" style="fill:#2b1c0e; stroke-width:0px;"/><path d="m48.78,104.13c.52-.62,4.91-6.43,12.17-7.53s12.71.97,14.65,2.08" style="fill:none; stroke:#eab488; stroke-linecap:round; stroke-miterlimit:10; stroke-width:1.22px;"/><path d="m125.85,95.91c.62-.49,6.01-5.25,13.34-4.79,7.33.47,12.27,3.66,13.97,5.16" style="fill:none; stroke:#eab488; stroke-linecap:round; stroke-miterlimit:10; stroke-width:1.22px;"/><path d="m49.66,82.49s-2.92-.17-3.14,3.04c0,1,.34,1.49.86,2.1,1.19,1.41,3.38,1.44,4.39-.13.17-.26.3-.56.38-.88" style="fill:none; stroke:#aaa; stroke-linecap:round; stroke-miterlimit:10; stroke-width:1.22px;"/><path d="m53.75,85.4s-1.6,1.36-3.2,2.16-.08-2.47,3.2-2.16Z" style="fill:#2b1c0e; stroke-width:0px;"/><path d="m52.86,81.94s-1.6,1.36-3.2,2.16-.08-2.47,3.2-2.16Z" style="fill:#2b1c0e; stroke-width:0px;"/><path d="m39.01,53.88l.43-9.41s85.8-58.76,117.3,9.99c-31.94-20.73-117.72-.58-117.72-.58Z" style="fill:#1a1704; stroke-width:0px;"/><path d="m51.22,33.53s56.27-41.5,96.5,1.77c-35.32-25.03-96.5-1.77-96.5-1.77Z" style="stroke-width:0px;"/><path d="m120.95,48.19c4.85.61,7.7-15.48,7.15-19.49-.15-4.75-7.3-8.25-10.09-5.99,0,0,4.52,7.37.73,12.93-3.04,4.46.18,12.29,2.21,12.54Z" style="fill:#2b1c0e; stroke-width:0px;"/><path d="m125.71,45.76c3.06,4.84,7.38,3.28,9.02-5.67.88-8.38-5.27-14.08-7.62-14.68,0,0,3,6.02,1.72,9.97-1.28,3.95-4.09,8.74-3.13,10.39Z" style="fill:#2b1c0e; stroke-width:0px;"/><path d="m107.51,47.48c3.15.45,5.11.41,6.03-5.27.69-4.23-1.13-20.3-2.88-21.31s-5.25,8.43-6.64,15.08c-.84,3.6-.45,10.86,3.49,11.5Z" style="fill:#2b1c0e; stroke-width:0px;"/><path d="m114.47,46.26c2.51.66,4.71-8.18,5.16-11.02,1.23-7.92-5.66-16.59-4.56-12.68,1.1,3.91-2.77,15.46-1.76,21.93.12.78,1.17,1.76,1.17,1.76Z" style="fill:#2b1c0e; stroke-width:0px;"/><path d="m99.79,46.24c-2.93-.27-4.16-4.97-3.58-11.83.58-6.85,12.1-13.53,12.1-13.53,0,0-6.73,16.67-5.59,22.25.43,2.51-2.94,3.1-2.94,3.1Z" style="fill:#2b1c0e; stroke-width:0px;"/><path d="m84.63,57.59c2.02-2.17,6.2-7,5.26-11.15,0,0,.21,3.4-5.37,11.22l.12-.08Z" style="fill:#2b1c0e; stroke-width:0px;"/><path d="m90.83,43.73c-2.73-3.01,1.06-19.87,16.59-22.12,0,0-8.06,6.51-8.32,12.58,2.45,7.7,2.47,6.62,2.38,8.24.02,1.89-1.85,3.84-2.49,3.95-.69.82-5.84-.09-8.17-2.65Z" style="fill:#2b1c0e; stroke-width:0px;"/><path d="m98.16,24.2s-21.53,9.22-17.59,21.4c6.59,11.03,8.45-11.76,17.59-21.4Z" style="fill:#2b1c0e; stroke-width:0px;"/><path d="m141.55,52.5c14.61,1.22-1.9-25.1-10.36-25.76-.47.15,5.12,6.05,4.18,13.66-2,6.7,2.32,11.78,6.19,12.1Z" style="fill:#2b1c0e; stroke-width:0px;"/><path d="m70.66,46.68c-4.73-2.67-5.64-22.2,17.74-21.71,14.45.3-3.4,3.44-6.14,7.74-2.74,4.3-2.06,12.51-4.54,15.44-2.49,2.93-7.06-1.48-7.06-1.48Z" style="fill:#2b1c0e; stroke-width:0px;"/><path d="m59.96,51.09c-6.13-2.94,1.49-20.9,12.43-23.66,0,0-4.57,7.35-5.08,11.28-.59,4.51.28,6.31,2.4,9.21,2.07,5.79-8.28,3.86-9.74,3.16Z" style="fill:#2b1c0e; stroke-width:0px;"/><path d="m48.94,57.69c-5.3-4.2-1.81-15.81,13.8-25.86,0,0-4.55,7.91-5.35,11.16-1.17,4.74,1.54,8.69,2.8,9.68,1.8,1.43-8.71,7.03-11.25,5.01Z" style="fill:#2b1c0e; stroke-width:0px;"/><path d="m41.51,59.84c-3.85-1.77,4.62-18.29,13.91-25.84,0,0-13.79,14.36-11.36,23.54.67,2.95-2.55,2.3-2.55,2.3Z" style="fill:#2b1c0e; stroke-width:0px;"/><path d="m35.75,72.34c-8.49-3.53,1.08-29.48,13.49-35.29,0,0-8.03,12.08-7.36,16.69.17,5.86-3.79,19.57-6.12,18.6Z" style="fill:#2b1c0e; stroke-width:0px;"/><path d="m152.59,55.4c.41,2.83,5.21,8.81,6.74,8.58s-1.04-20.62-5.05-23.66c-4.02-3.04-9.35-6.89-10.21-7.39s7.49,15.35,8.53,22.47Z" style="fill:#2b1c0e; stroke-width:0px;"/><path d="m160.82,66.82c.36,1.88,6.29,3.18,5.44-4.64-.84-7.82-5.05-11.97-3.95-9.34s-2.2,10.24-1.49,13.97Z" style="fill:#2b1c0e; stroke-width:0px;"/><path d="m35.3,77.11c1.52-4.62-5.31-15.13-3.68-17.62-1.89,1.73-.92,14.29,1.06,16.64.78,2.35,2.62.98,2.62.98Z" style="fill:#2b1c0e; stroke-width:0px;"/><path d="m87.95,55.73c1.18-1.98,3.6-6.33,2.26-9.29,0,0,.67,2.52-2.33,9.36l.08-.08Z" style="fill:#2b1c0e; stroke-width:0px;"/></svg>