<?xml version="1.0" encoding="UTF-8"?><svg id="Camada_1" xmlns="http://www.w3.org/2000/svg" viewBox="0 0 200.72 291.71"><path d="m178.76,152.45s-2.91,9.86-1.29,15.8-6.95,19.3-6.49,24.63c-.02,6.7.5,11.87,7.78,20.77-6.38-1.19-14.26-8.61-14.26-17.8,2.78,7.71,6.02,24.33-.46,34.72-6.43,10.29,1.16,35.01,5.1,35.61-8.25,0-21.77-20.96-22.31-28.23-.15-2.02-3.66-12.07-3.4-14.07,1.94-14.72,3.23-9.63,3.23-9.63,0,0-5.32,6.53-2.54,11.57-4.83-2.67-7.93-40.56-7.93-45.44,2.62-3.17-82.17-12.64-82.17-12.64,0,0-2.33,49.48,5.08,64.32,7.41,14.84-2.88,26.11-3.18,26.71s-6.55,11.57-3.08,17.51c-5.33-2.67-5.39-16.62-1.16-24.03,4.24-7.42-.46-12.84-.46-12.84,0,0-10.05,8.99-6.02,16.7-6.55-1.78-2.78-24.03.69-26.41-7.25,9.71-2.55,41.84-9.5,43.03,2.25-4.75,3.94-15.43,0-24.33s.23-23.44,1.16-24.33c-9.5,13.35,2.08,29.08-6.02,32.34,1.62-6.23-1.39-11.57-5.33-23.74-3.94-12.17-3.94-43.62,0-48.96-6.01,13.82-6.95,16.91-11.58,17.21,3.48-1.3,4.47-4.81,5.57-12.46,1.1-7.66-.74-27.53,4.38-37.2-4.38,7.91-15.74,24.15-24.08,22.07,11.58-1.19,20.18-24.12,20.51-32.68s3.81-20.73,3.81-20.73c0,0-15.52,19.58-14.36,28.49-4.17-8.31-1.07-24.42,3.87-29.26,7.18-3.87,3.47-45.81,14.83-64.21-3.01-.59-5.72,2.97-7.57,7.42-1.38-6.82,8.11-20.77,15.52-19.58,7.41,1.19,5.79-15.43-8.57-14.24,9.03-3.26,16.91,5.62,18.3,8.15s-5.33-17.94-12.74-18.24c9.03-2.37,15.75,5.93,16.45,11.87s-2.08-20.77,3.24-22.25c-2.08,7.71-.8,16.02,2.15,18.99S73.21,1.78,78.89,5.64c-6.13,1.78-7.98,9.2-4.97,15.73s21.63-12.76,12.44-21.36c9.57,2.37,8.41,13.95,6.79,16.62s6.72-22.85,42.16-5.93c21.54,9.79,19-2.08,19-2.08,0,0,1.39,17.21-5.33,17.21,8.57-.89,14.1-8.01,20.15-4.75-3.45,1.31-7.41,1.78-7.88,11.87-.46,10.09,17.37,5.64,19.69,21.36,2.32,15.73,4.63,48.96,17.14,45.4-2.55,4.31-12.47,7.01-14.23,1.87,4.27,8.72,6.35,8.96,6.12,19.61-.23,10.65,6.25,9.46,8.11,7.19.2,5.2-9.84,13.06-14.23,1.17-4.39-11.89-5.1,22.9-5.1,22.9Z" style="fill:#3d1d1a; stroke-width:0px;"/><path d="m34.58,55.85s-36.99,24.38-13.36,62-40.49-40.25,13.36-62Z" style="fill:#3d1d1a; stroke-width:0px;"/><path d="m37.38,174.1s7.85,64.41,36.72,83.94c28.87,19.53,16.28,31.66,13.59,33.68,13.03-3.37,27.71-18.04,31.52-30.87,6.63-22.34,23.58-25.14,27.39-30.53,3.81-5.39,28.37-32.55,11.89-50.4s-112.18-19.04-121.1-5.81Z" style="fill:#3d1d1a; stroke-width:0px;"/><path d="m181.94,122.8s12.8,43,3.61,54.29c-9.19,11.3-2.55,38.2,6.76,32.06-9.21,6.48-28.74-12.01-26.63-17.11s-.73-75.45,6.99-76c7.72-.56,9.27,6.76,9.27,6.76Z" style="fill:#3d1d1a; stroke-width:0px;"/><path d="m174.61,104.58s20.01,55.79,12.98,68.54c-7.03,12.76,4.58,22.28,12.63,14.57-7.91,8.02-30.42-6.68-29.26-12.08s-14.18-74.11-6.69-76.03c7.5-1.93,10.33,4.99,10.33,4.99Z" style="fill:#3d1d1a; stroke-width:0px;"/><path d="m21.13,129.67s-12.8,43-3.61,54.29c9.19,11.3,2.55,38.2-6.76,32.06,9.21,6.48,28.74-12.01,26.63-17.11-2.11-5.1.73-75.45-6.99-76-7.72-.56-9.27,6.76-9.27,6.76Z" style="fill:#3d1d1a; stroke-width:0px;"/><path d="m156.42,28.29s54.18,19.77,19.56,50.28c-34.62,30.51,59.3-32.64-19.56-50.28Z" style="fill:#3d1d1a; stroke-width:0px;"/><path d="m178.44,118.29s30.07,19.77,10.86,50.28c-19.21,30.51,32.91-32.64-10.86-50.28Z" style="fill:#3d1d1a; stroke-width:0px;"/><path d="m25.95,130.52s-30.07,19.77-10.86,50.28c19.21,30.51-32.91-32.64,10.86-50.28Z" style="fill:#3d1d1a; stroke-width:0px;"/><path d="m42.94,121.42s5.1,33.27,7.31,38.96c2.22,5.69,17.28,21.89,28.8,29.33s25.48,14.23,41.87,4.6c16.39-9.63,32.34-27.85,35-34.06s7.97-39.91,7.53-44.07,5.32-49.68-10.19-59.09c-15.51-9.41-79.31-10.72-95.7,0-16.39,10.72-15.22,60.53-14.62,64.34Z" style="fill:#f7d2ba; stroke-width:0px;"/><path d="m93.75,127.41c1.16.16,2.77-23.29,11.86-23.5,9.08-.21,9.72,22.92,9.87,23.6,2.71.4,5.09,3,4.86,6.53-.23,3.54-2.61,6.89-8.6,5.74-.67-.13-1.54-.2-2.52-.23-2.03,2.5-6.55,3.76-11.91.76-2.04.23-3.44.42-3.44.42,0,0-6.37,1.34-7.51-4.83-1.14-6.17,4.5-8.91,7.41-8.5Z" style="fill:#ffa492; stroke-width:0px;"/><path d="m38.12,105.9s-6.11-6.51-13.89-.75c-2.1,1.55-3.45,4.67-4.15,8.49-.84,4.65-.47,9.47.82,13.99,2.9,10.11,3.14,16.51,7.15,18.65,8.69,4.63,13.16-9.33,13.16-9.33" style="fill:#f4bd9f; stroke-width:0px;"/><path d="m167.73,99.64s7.11-7.9,16.16-.91,5.06,34.03-5.06,39.65c-10.11,5.62-13.77-5.99-13.77-5.99" style="fill:#f4bd9f; stroke-width:0px;"/><path d="m58.25,104.39s6.39-5.05,11.79-5.86,12.79,1.65,15.99,4.52" style="fill:none; stroke:#fcae92; stroke-linecap:round; stroke-miterlimit:10; stroke-width:1.01px;"/><path d="m121.79,104.66s6.25-5.22,11.63-6.17,12.83,1.31,16.11,4.08" style="fill:none; stroke:#fcae92; stroke-linecap:round; stroke-miterlimit:10; stroke-width:1.01px;"/><line x1="22.03" y1="116.44" x2="32.22" y2="106.25" style="fill:none; stroke:#aaa; stroke-linecap:round; stroke-miterlimit:10; stroke-width:1.01px;"/><path d="m23.48,123.07s-4.41-9.26,2.05-15.15,9.36.2,9.39,2.41" style="fill:none; stroke:#f48a69; stroke-linecap:round; stroke-miterlimit:10; stroke-width:1.01px;"/><path d="m182.8,121.21s5.36-8.74-.44-15.28-9.33-.79-9.59,1.41" style="fill:none; stroke:#f48a69; stroke-linecap:round; stroke-miterlimit:10; stroke-width:1.01px;"/><line x1="72.2" y1="118" x2="72.3" y2="115.73" style="fill:none; stroke:#000; stroke-linecap:round; stroke-miterlimit:10; stroke-width:1.01px;"/><line x1="81.15" y1="116.19" x2="80.72" y2="114.46" style="fill:none; stroke:#000; stroke-linecap:round; stroke-miterlimit:10; stroke-width:1.01px;"/><line x1="128.89" y1="100.04" x2="130" y2="103.51" style="fill:none; stroke:#000; stroke-linecap:round; stroke-miterlimit:10; stroke-width:1.01px;"/><line x1="136.94" y1="97.87" x2="137.06" y2="101.51" style="fill:none; stroke:#000; stroke-linecap:round; stroke-miterlimit:10; stroke-width:1.01px;"/><line x1="143.65" y1="99.07" x2="142.72" y2="102.59" style="fill:none; stroke:#000; stroke-linecap:round; stroke-miterlimit:10; stroke-width:1.01px;"/><line x1="64.72" y1="114.41" x2="63.3" y2="117.06" style="fill:none; stroke:#000; stroke-linecap:round; stroke-miterlimit:10; stroke-width:1.01px;"/><line x1="136.36" y1="118.16" x2="136.11" y2="115.91" style="fill:none; stroke:#000; stroke-linecap:round; stroke-miterlimit:10; stroke-width:1.01px;"/><line x1="127.32" y1="116.96" x2="127.63" y2="115.2" style="fill:none; stroke:#000; stroke-linecap:round; stroke-miterlimit:10; stroke-width:1.01px;"/><line x1="143.59" y1="114.08" x2="145.18" y2="116.62" style="fill:none; stroke:#000; stroke-linecap:round; stroke-miterlimit:10; stroke-width:1.01px;"/><line x1="72.65" y1="98" x2="72.89" y2="101.63" style="fill:none; stroke:#000; stroke-linecap:round; stroke-miterlimit:10; stroke-width:1.01px;"/><line x1="80.99" y1="98.9" x2="80.19" y2="102.46" style="fill:none; stroke:#000; stroke-linecap:round; stroke-miterlimit:10; stroke-width:1.01px;"/><line x1="66.21" y1="103.63" x2="64.27" y2="100.01" style="fill:none; stroke:#000; stroke-linecap:round; stroke-miterlimit:10; stroke-width:1.01px;"/><path d="m120.75,107.46s13.51-12.41,28.54-.55c.03,9.08-25.22,10.02-28.54.55Z" style="fill:#fff4de; stroke-width:0px;"/><path d="m59.78,109.56s10.26-14.73,28.46-3.77c.18,8.44-25.64,11.74-28.46,3.77Z" style="fill:#fff4de; stroke-width:0px;"/><path d="m87.47,90.54s-24.51-4.24-30.56,2.84c2.66-1.09,4.34-1.27,6.4-1.57s14.43-1.06,22.76,1.33c1.38-1.3,1.4-2.6,1.4-2.6Z" style="stroke-width:0px;"/><path d="m118.87,92.28s23.94-6,30.43.64c-2.71-.9-4.38-.95-6.44-1.1s-14.35-.02-22.42,2.96c-1.46-1.2-1.57-2.49-1.57-2.49Z" style="stroke-width:0px;"/><path d="m89.53,90.65s-.96,2.69-1.8,3.28" style="fill:none; stroke:#000; stroke-miterlimit:10; stroke-width:2.01px;"/><path d="m82.79,163.84s-.87,1.68,0,2.59,7.06,5.11,14.39,5.11,6.13,0,6.73,0,8.23.36,9.74-.46c1.64-.64,9.6-2.64,9.22-5.74s-17.77-8.57-19.84-8.21c-2.07.36-19.14,5.12-20.24,6.71Z" style="fill:#b55952; stroke-width:0px;"/><path d="m81.57,164.1s14.22-9.46,15.62-9.57,4.74,1.19,5.15,1.46,4.64-2.1,5.38-1.46c1.55.46,14.41,9.06,15.73,9.15.72.73-.66,1.37-1.33,1.37-2.8.55-12.64-3.5-13.97-3.5s-9.06.27-10.82-.27-11.35,3.92-12.82,3.83-2.36,0-2.95-1Z" style="fill:#9b392c; stroke-width:0px;"/><path d="m96.41,132.32c-.8-.32-1.72-.23-2.45.24-.59.38-1.19,1.05-1.27,2.24-.15,2.38,1.46,2.59,2.42,2.59.91,0,2.62-.45,2.65-2.65.02-1.43-.59-2.12-1.35-2.43Z" style="fill:#e0604b; stroke-width:0px;"/><path d="m91.61,171.34c-.47-.19-1.02-.13-1.45.14-.35.22-.7.62-.75,1.33-.09,1.41.86,1.53,1.43,1.53.54,0,1.55-.27,1.56-1.56.01-.84-.35-1.25-.8-1.43Z" style="fill:#969696; stroke-width:0px;"/><path d="m114.48,171.95c-.47-.19-1.02-.13-1.45.14-.35.22-.7.62-.75,1.33-.09,1.41.86,1.53,1.43,1.53.54,0,1.55-.27,1.56-1.56.01-.84-.35-1.25-.8-1.43Z" style="fill:#969696; stroke-width:0px;"/><path d="m112.84,132.32c-.8-.32-1.72-.23-2.45.24-.59.38-1.19,1.05-1.27,2.24-.15,2.38,1.46,2.59,2.42,2.59.91,0,2.62-.45,2.65-2.65.02-1.43-.59-2.12-1.35-2.43Z" style="fill:#e0604b; stroke-width:0px;"/><path d="m74.75,102.08c1.87-.14,3.74.66,4.94,2.11.97,1.17,1.79,2.98,1.16,5.51-1.26,5.06-4.75,4.44-6.76,3.8-1.89-.6-5.16-2.68-3.76-7.26.91-2.99,2.63-4.03,4.43-4.16Z" style="fill:#2b1c0e; stroke-width:0px;"/><path d="m30.66,131.9c1.95-.22,3.87.71,5.08,2.45.98,1.41,1.78,3.59,1.05,6.68-1.45,6.19-5.06,5.53-7.14,4.8-1.95-.68-5.29-3.13-3.71-8.75,1.03-3.66,2.85-4.97,4.72-5.18Z" style="stroke-width:0px;"/><path d="m133.66,102.1c1.87-.14,3.74.66,4.94,2.11.97,1.17,1.79,2.98,1.16,5.51-1.26,5.06-4.75,4.44-6.76,3.8-1.89-.6-5.16-2.68-3.76-7.26.91-2.99,2.63-4.03,4.43-4.16Z" style="fill:#2b1c0e; stroke-width:0px;"/><path d="m113.39,134.27s1.12,4,5.65,2.34c.65-.28,1.14-.59,1.53-.93.89-.78,1.42-2.06,1.24-3.53s-1.02-3.17-3.81-3.52" style="fill:none; stroke:#aaa; stroke-linecap:round; stroke-miterlimit:10; stroke-width:1.01px;"/><path d="m93.21,134.76s-1.9,4.58-6.3,1.94c-.62-.42-1.07-.84-1.41-1.28-.78-.99-1.06-2.45-.56-3.96s1.73-3.15,4.72-2.97" style="fill:none; stroke:#aaa; stroke-linecap:round; stroke-miterlimit:10; stroke-width:1.01px;"/><path d="m97.24,135.04s-2.01,5.23,2.22,7.49" style="fill:none; stroke:#aaa; stroke-linecap:round; stroke-miterlimit:10; stroke-width:1.01px;"/><path d="m109.53,134.95s2.45,5.04-1.56,7.65" style="fill:none; stroke:#aaa; stroke-linecap:round; stroke-miterlimit:10; stroke-width:1.01px;"/><path d="m99.95,141.12c-.47-.19-1.02-.13-1.45.14-.35.22-.7.62-.75,1.33-.09,1.41.86,1.53,1.43,1.53.54,0,1.55-.27,1.56-1.56.01-.84-.35-1.25-.8-1.43Z" style="fill:#969696; stroke-width:0px;"/><path d="m35.62,102.18c-.47-.19-1.02-.13-1.45.14-.35.22-.7.62-.75,1.33-.09,1.41.86,1.53,1.43,1.53.54,0,1.55-.27,1.56-1.56.01-.84-.35-1.25-.8-1.43Z" style="fill:#969696; stroke-width:0px;"/><path d="m19.13,117.43c-.47-.19-1.02-.13-1.45.14-.35.22-.7.62-.75,1.33-.09,1.41.86,1.53,1.43,1.53.54,0,1.55-.27,1.56-1.56.01-.84-.35-1.25-.8-1.43Z" style="fill:#969696; stroke-width:0px;"/><path d="m63.51,87.11c-.46-.18-.99-.13-1.4.14-.34.22-.68.6-.72,1.28-.09,1.36.83,1.48,1.39,1.48.52,0,1.5-.26,1.51-1.52,0-.82-.34-1.21-.77-1.39Z" style="fill:#969696; stroke-width:0px;"/><path d="m64.44,93.82c-.46-.18-.99-.13-1.4.14-.34.22-.68.6-.72,1.28-.09,1.36.83,1.48,1.39,1.48.52,0,1.5-.26,1.51-1.52,0-.82-.34-1.21-.77-1.39Z" style="fill:#969696; stroke-width:0px;"/><path d="m107.56,141.49c-.47-.19-1.02-.13-1.45.14-.35.22-.7.62-.75,1.33-.09,1.41.86,1.53,1.43,1.53.54,0,1.55-.27,1.56-1.56.01-.84-.35-1.25-.8-1.43Z" style="fill:#969696; stroke-width:0px;"/><path d="m25.53,130.03s-1.02,4.31-2.83,6.92c-1.81,2.61-1.46-.11-.26-2.29" style="fill:none; stroke:#aaa; stroke-linecap:round; stroke-miterlimit:10; stroke-width:1.51px;"/><path d="m183.56,107.06s3.29,2.97,6.26,4.08c2.97,1.11,1.14-.92-1.09-2.03" style="fill:none; stroke:#aaa; stroke-linecap:round; stroke-miterlimit:10; stroke-width:1.51px;"/><path d="m183.56,111.91s3.29,2.97,6.26,4.08c2.97,1.11,1.14-.92-1.09-2.03" style="fill:none; stroke:#aaa; stroke-linecap:round; stroke-miterlimit:10; stroke-width:1.51px;"/><path d="m183.77,124.93s.23,4.42,1.55,7.31c1.32,2.89,1.45.15.66-2.21" style="fill:none; stroke:#aaa; stroke-linecap:round; stroke-miterlimit:10; stroke-width:1.51px;"/><path d="m180.85,128.65s.23,4.42,1.55,7.31c1.32,2.89,1.45.15.66-2.21" style="fill:none; stroke:#aaa; stroke-linecap:round; stroke-miterlimit:10; stroke-width:1.51px;"/><path d="m177.87,132.81s.23,4.42,1.55,7.31c1.32,2.89,1.45.15.66-2.21" style="fill:none; stroke:#aaa; stroke-linecap:round; stroke-miterlimit:10; stroke-width:1.51px;"/><path d="m24.16,125.49s-1.28,3.6-3.09,6.21c-1.81,2.61-1.2.6,0-1.59" style="fill:none; stroke:#aaa; stroke-linecap:round; stroke-miterlimit:10; stroke-width:1.51px;"/><path d="m60.31,81.39s-23.68,30.78-10.26,49.12c25.25,33.65-.44,63.08-7.61,64.66,10.71-1.55,23.78-21.77,2.76-47.62-5.19-7.1-11.72-64.23-2.64-68.67,7.2-.19,17.76,2.51,17.76,2.51Z" style="fill:#512c2a; stroke-width:0px;"/><path d="m186.47,100.68s-7.72-2.41-8.93,17.31c-.45,7.38-.51,14.78-1.26,22.14-.45,4.39-.55,7.44-.58,10.22-.27,24.19-18.5,36.75-41.28,46.82-10.11,4.47-48.82,15.08-34.73,24.48-8.36-8.54,13.09-21.22,34.73-24.48,0,0,36.49-32.16,30.75-47.97-6.2-15.03-12.48-66.62,8.66-69.55,11.23,21.83,12.65,21.04,12.65,21.04Z" style="fill:#512c2a; stroke-width:0px;"/><path d="m161.35,95.6l19.57,8.79s-2.66,3.68-3.2,9.55c-5.23-.45-18.32-1.59-18.32-1.59,0,0-.52-9.72,1.95-16.75Z" style="fill:#7f4e00; stroke-width:0px;"/><path d="m160.82,131.32l16.12,1.38-1.03,12.07c-4.2.44-12.44-.65-12.44-.65,0,0-1.9-6.25-2.64-12.8Z" style="fill:#7f4e00; stroke-width:0px;"/><path d="m164.1,160.45l9.73,1.61s-.36,4.23-6.56,12.76c-3.97-.17-9.51-3.21-9.51-3.21,0,0,4.09-5.57,6.33-11.15Z" style="fill:#7f4e00; stroke-width:0px;"/><path d="m149.09,182.41l6.92,2.93s-5.31,4.01-14.02,8.28c-1.19-.79-2.6-1.2-2.6-1.2,0,0,6.17-5.47,9.7-10.01Z" style="fill:#7f4e00; stroke-width:0px;"/><path d="m161.11,104.35c10.71,10.71-10.89,32.07-10.89,32.07,30.18-14.54,38.13-60.73,17.7-81.16" style="fill:#381211; stroke-width:0px;"/><path d="m149.66,132.89c18.16-16.18,41.15-57.24,17.7-81.16-35.2-32.55-66.71-33.1-90.19-24.24s-47.42,28.63-44.07,61.55c4.08,22.98,9.94,32.03,9.94,32.03,0,0,4.37,9.97,14.42,11.32-9.14-3.72-13.11-30.42-8.42-35.24,5.36-5.84,20.35-23.26,15.48-46.52,2.66,11.74,33.96,43.79,53.67,44.23-12.5-3.3-24.59-22.96-22.15-27.84-.44,5.98,13.86,23.25,25.7,24.44-4.43-3.03-21.09-14.67-19.13-41.06,0,0,26.27,49.4,57.95,50.42,10.71,10.71-10.89,32.07-10.89,32.07Z" style="fill:#3d1d1a; stroke-width:0px;"/><path d="m83.59,283.34s-14.51-3.1,0-22.15c14.51-19.05-21.98-15.6-21.98-15.6,0,0,11.49,14.05,10.59,21.36s2.86,16.1,11.39,16.39Z" style="fill:#3d1d1a; stroke-width:0px;"/><path d="m146.73,266.06s-22.65-5.1,5.08-41.2c21.17-15.95-16.27,3.6-16.27,3.6l-8.33,12.24s-13.16,18.72,19.52,25.36Z" style="fill:#3d1d1a; stroke-width:0px;"/><path d="m164.55,258.27c-.75.06,10.48-3.23,4.08-17.73-5.32-9.47-4.36-17.87-4.08-24.94s-4.66-14.33-1.74-16.67c2.21-1.78,3.3,5.1,5.44,14.01.98,4.06,2.23,7.77,3.54,11.37,3.75,10.28,3.99,33.12-7.24,33.97Z" style="fill:#3d1d1a; stroke-width:0px;"/><path d="m188.4,231.28c.63-.41-9.81,4.35-10.74-7.74.3-8.57-4-12.82-7.2-16.7-3.2-3.88-2.27-10.97-5.61-10.58-2.53.29-.51,4.87,1.51,11.24.92,2.9,1.47,5.77,1.93,8.61,1.3,8.11,10.72,21.33,20.12,15.17Z" style="fill:#3d1d1a; stroke-width:0px;"/><path d="m119.08,259.85s-7.31,20.16,5.51,24.9c-11.11,1.03-19.95-13.47-11.11-22.31,5.53-5.53,5.6-2.59,5.6-2.59Z" style="fill:#3d1d1a; stroke-width:0px;"/><path d="m59.78,109.56s-6.81-1.56-9.3-5.93c7.32,3.37,15.17-1.89,20.43-2.36,3.58-.32,11-.23,17.34,4.53-.95-.95-13.94-9.12-28.46,3.77Z" style="fill:#280f0b; stroke-width:0px;"/><path d="m149.52,108.02s6.09-2.53,8.06-7.16c-6.97,4.2-15.57-.1-20.94.05-3.66.1-10.09,1.09-15.89,6.56.84-1.06,13.68-11.61,28.77.56Z" style="fill:#280f0b; stroke-width:0px;"/></svg>